<?xml version="1.0" standalone="no"?>
<!DOCTYPE svg PUBLIC "-//W3C//DTD SVG 1.1//EN" "http://www.w3.org/Graphics/SVG/1.1/DTD/svg11.dtd" >
<!--
2013-9-30: Created.
-->
<svg>
<metadata>
Created by iconfont
</metadata>
<defs>

<font id="iconfont" horiz-adv-x="1024" >
  <font-face
    font-family="iconfont"
    font-weight="500"
    font-stretch="normal"
    units-per-em="1024"
    ascent="896"
    descent="-128"
  />
    <missing-glyph />
    
    <glyph glyph-name="video" unicode="&#58913;" d="M222.784735 669.23597369L87.96349326 669.23597369c-31.16833906 0-56.43669049-25.26835143-56.43669049-56.43669049L31.52680277 126.81925973c0-31.17066923 25.26835143-56.43669049 56.43669049-56.43669048l134.82124174 0L222.784735 669.23597369zM234.43557944 669.23597369l0-598.85340444L805.96309333 70.38256924999996l0 598.85340444L234.43557944 669.23597369zM434.64602055 234.37286514000004l0.24000739 270.87514283 171.76140914-135.6414612L434.64602055 234.37286514000004zM817.61393778 669.23597369l134.81891157 0c31.17066923 0 56.43902066-25.26835143 56.43902065-56.43669049L1008.87187 126.81925973c0-31.17066923-25.26835143-56.43669049-56.43902065-56.43669048L817.61393778 70.38256924999996 817.61393778 669.23597369z"  horiz-adv-x="1024" />

    
    <glyph glyph-name="extend" unicode="&#58946;" d="M512 274.50026667L880.36693333-93.86666666999997 974.2336 0 512 462.2336 49.7664 0 143.63306667-93.73013332999994ZM512 674.06506667L880.36693333 305.7664 974.2336 399.63306667 512 861.86666667 49.7664 399.63306667 143.63306667 305.7664Z"  horiz-adv-x="1024" />

    
    <glyph glyph-name="qq" unicode="&#58882;" d="M933.4461 252.137787c-18.783809 108.945271-97.673553 180.322925-97.673553 180.322925 11.268648 98.920964-30.055526 116.461455-30.055526 116.461455C797.015847 854.972585 533.382495 849.61353 527.847431 849.468221c-5.542226 0.145309-269.211395 5.504364-277.872658-300.5481 0 0-41.325198-17.539468-30.054503-116.461455 0 0-78.894861-71.377654-97.676623-180.322925 0 0-10.033517-184.082552 90.159416-22.543436 0 0 22.544459-61.344137 63.86761-116.455315 0 0-73.897034-25.061792-67.621097-90.164532 0 0-2.517333-72.618924 157.784606-67.62519 0 0 112.701828 8.756431 146.515958 56.350402l14.766308 0 0.26299 0 14.765285 0c33.809013-47.596018 146.513912-56.350402 146.513912-56.350402 160.26203-4.993734 157.781536 67.62519 157.781536 67.62519 6.238075 65.10274-67.620074 90.164532-67.620074 90.164532 41.324174 55.109132 63.86147 116.455315 63.86147 116.455315C943.437661 68.05523500000004 933.4461 252.137787 933.4461 252.137787L933.4461 252.137787z"  horiz-adv-x="1024" />

    
    <glyph glyph-name="next-play" unicode="&#58960;" d="M434.902576 460.960813l0 7.656377c0 84.99479 0 214.688617 0 299.704896 0 34.795481 24.739451 61.302181 59.513442 61.912072 41.624003 0.741897-6.065136 0.720408 35.602869 0.021489 34.164101-0.566912 59.032488-27.182083 59.07649-61.739133 0.086981-84.797291 0.044002-214.274178 0.044002-299.07147l0-8.486278 8.289804 0c84.164888 0 213.008348 0 297.173237 0 38.395472 0 63.963801-25.546839 64.051805-64.029292 0.086981-38.482453 0.086981 12.391215 0-26.113751-0.088004-38.526455-25.65531-64.028269-64.007803-64.028269L597.473185 306.787454l-8.02886 0c-0.130983-2.182712-0.304945-4.01443-0.304945-5.824659-0.044002-85.234243 0.042979-215.125569-0.044002-300.337299 0-30.345122-17.671475-54.342676-45.245484-61.301158-5.454222-1.375324-11.257391-1.963725-16.929578-1.985214-39.530318-0.174985 10.253528-0.130983-29.275767-0.086981-36.650735 0.042979-62.698994 26.004257-62.741973 62.698994-0.042979 85.429695 0 215.538985 0 300.968679l0 5.868661-7.67889 0c-84.99479 0-214.710107 0-299.703873 0.021489-35.733852 0-62.087057 26.200732-62.175061 61.978587-0.086981 39.987736-0.086981-9.402137 0 30.563086 0.086981 35.384905 26.440186 61.58666 61.956074 61.58666 84.775802 0.044002 214.274178 0.021489 299.04998 0.021489C428.881442 460.960813 431.412079 460.960813 434.902576 460.960813L434.902576 460.960813zM434.902576 460.960813"  horiz-adv-x="1024" />

    
    <glyph glyph-name="history" unicode="&#58927;" d="M512 832c-247.41888 0-448-200.580096-448-448 0-247.433216 200.58112-448 448-448 247.43424 0 448 200.56576 448 448C960 631.419904 759.43424 832 512 832zM512-8.87500799999998c-216.152064 0-392.000512 176.722944-392.000512 392.875008s175.848448 392.000512 392.000512 392.000512c216.153088 0 392.000512-175.847424 392.000512-392.000512S728.153088-8.87500799999998 512-8.87500799999998zM540.000256 395.362304L540.000256 664.000512c0 15.463424-12.536832 28.000256-28.000256 28.000256s-28.000256-12.536832-28.000256-28.000256l0-280.000512c0-7.56736 3.008512-14.42816 7.885824-19.467264 0.644096-0.805888 1.335296-1.586176 2.080768-2.331648l138.592256-138.592256c10.938368-10.9312 28.669952-10.9312 39.60832 0 10.937344 10.930176 10.937344 28.662784 0 39.600128L540.000256 395.362304z"  horiz-adv-x="1024" />

    
    <glyph glyph-name="not-full" unicode="&#59293;" d="M606.15111111 238.21425777000002L606.15111111-46.64888888999997C606.15111111-66.74659555999995 622.46229333-83.05777779000005 642.56-83.05777779000005s36.40888889 16.31118222 36.40888888 36.4088889l0 205.56458666 231.48771556-231.56053333c13.61692445-13.61692445 35.68071111-13.61692445 49.37045334 0 13.61692445 13.68974222 13.61692445 35.75352889 0 49.37045333L728.26652444 208.21333332999995 933.83111111 208.21333332999995c20.09770667 0 36.40888889 16.31118222 36.40888889 36.40888888S953.92881778 281.03111111 933.83111111 281.03111111L648.96796444 281.03111111C622.38947555 281.03111111 606.15111111 267.34136888 606.15111111 238.21425777000002zM347.13827555 281.03111111L62.27512888 281.03111111c-20.09770667 0-36.40888889-16.31118222-36.40888888-36.4088889s16.31118222-36.40888889 36.40888888-36.40888888l205.56458667 0-231.56053333-231.48771556c-13.61692445-13.61692445-13.61692445-35.68071111 0-49.37045333 13.68974222-13.61692445 35.75352889-13.61692445 49.37045333 0l231.48771556 231.56053333L317.13735111-46.64888888999997c0-20.09770667 16.31118222-36.40888889 36.40888889-36.4088889s36.40888889 16.31118222 36.40888888 36.4088889l0 284.86314666C389.95512888 267.34136888 373.78958222 281.03111111 347.13827555 281.03111111zM648.96796444 499.48444444L933.83111111 499.48444444C953.92881778 499.48444444 970.24 515.7956266599999 970.24 535.89333333S953.92881778 572.3022222100001 933.83111111 572.3022222100001l-205.56458667 0 231.56053334 231.48771556c13.61692445 13.61692445 13.61692445 35.68071111 0 49.37045334-13.68974222 13.61692445-35.75352889 13.61692445-49.37045334 0L678.96888888 621.59985777 678.96888888 827.16444444C678.96888888 847.26215111 662.65770666 863.57333333 642.56 863.57333333S606.15111111 847.26215111 606.15111111 827.16444444l0-284.86314667C606.15111111 513.17418666 622.38947555 499.48444444 648.96796444 499.48444444zM389.95512888 542.30129777L389.95512888 827.16444444c0 20.09770667-16.31118222 36.40888889-36.40888888 36.40888889s-36.40888889-16.31118222-36.40888889-36.40888889l0-205.56458667-231.48771556 231.56053334c-13.61692445 13.61692445-35.68071111 13.61692445-49.37045333 0-13.61692445-13.68974222-13.61692445-35.75352889 0-49.37045334L267.83971555 572.3022222100001 62.27512888 572.3022222100001c-20.09770667 0-36.40888889-16.31118222-36.40888888-36.40888888S42.17742222 499.48444444 62.27512888 499.48444444l284.86314667 0C373.78958222 499.48444444 389.95512888 513.17418666 389.95512888 542.30129777z"  horiz-adv-x="1024" />

    
    <glyph glyph-name="search" unicode="&#58897;" d="M963.80969 21.085491000000047L746.640896 242.94338600000003c-3.587891 3.66551-7.710925 6.443725-12.110336 8.352256 46.655488 62.60183 74.359501 140.751667 74.359501 225.526477 0 205.788877-163.237376 372.568371-364.609741 372.568371C242.909082 849.39049 79.67785 682.609971 79.67785 476.822016c0-205.792973 163.231232-372.569395 364.603597-372.569395 92.421632 0 176.807936 35.134157 241.069056 93.044122 1.778586-3.55799 4.115866-6.89705 7.027302-9.871872l217.115546-221.85687c14.970573-15.300506 39.292518-15.300506 54.316237 0C978.780262-19.131493999999975 978.780262 5.786010000000033 963.80969 21.085491000000047zM444.281446 163.04977899999994c-169.564672 0-307.06176 140.4928-307.06176 313.772237 0 173.332685 137.496064 313.766195 307.06176 313.766195 169.570816 0 307.06176-140.433408 307.06176-313.766195C751.343206 303.54257900000005 613.851238 163.04977899999994 444.281446 163.04977899999994z"  horiz-adv-x="1024" />

    
    <glyph glyph-name="weblog" unicode="&#58941;" d="M905.2095 689.099766c-87.591941 84.118839-216.174458 72.356958-216.174458 72.356958-15.810081-0.319272-28.629038-13.410428-28.629038-29.359678l0-14.2127c0-15.897062 12.759605-28.04166 29.03529-27.76332 0 0 123.395378 13.097296 175.956478-63.518662 52.552913-76.615958 29.846772-172.754552 29.846772-172.754552-2.411933-15.693424 8.479115-28.418236 24.541953-28.418236l12.260232 0c15.966647 0 30.729885 12.68388 32.450063 28.523637C964.498838 453.953212 992.800417 604.983997 905.2095 689.099766L905.2095 689.099766zM803.345508 459.404364l17.372669 0c10.604522 0 20.883633 8.31027 22.596647 18.989493 0 0 20.475334 79.68383-27.296693 123.358539-47.777143 43.676755-110.211101 27.744901-110.211101 27.744901-10.471492-1.598404-18.97005-11.528568-18.97005-22.084994l0-7.494695c0-10.604522 8.483208-18.557658 19.436678-18.23941 0 0 52.40351 7.129374 77.892021-23.601534 25.484418-30.738072 5.531993-80.44517 5.531993-80.44517C786.634918 467.562161 792.882202 459.404364 803.345508 459.404364L803.345508 459.404364zM395.210064 380.819564c-86.011956-16.717753-144.265708-89.281419-130.117476-162.080445 14.153348-72.792886 95.347578-118.253264 181.354418-101.535511 86.009909 16.72287 144.276964 89.288582 130.123616 162.086585C562.421366 352.08205599999997 481.227136 397.542434 395.210064 380.819564L395.210064 380.819564zM388.155391 189.37227800000005c-26.470885-12.341073-55.552224-6.007831-64.953338 14.153348-9.402137 20.169365 4.433986 46.518476 30.90487 58.859549 26.471908 12.348236 55.555294 6.007831 64.960501-14.153348C428.456259 228.06348500000001 414.633439 201.71335 388.155391 189.37227800000005L388.155391 189.37227800000005zM448.856891 250.63148c-14.594393 0-26.431999 12.023848-26.431999 26.854625 0 14.829753 11.835559 26.857694 26.431999 26.857694 14.614859 0 26.453489-12.028964 26.453489-26.857694C475.309356 262.653281 463.469704 250.63148 448.856891 250.63148L448.856891 250.63148zM715.679889 410.869974c0 8.087189 76.927043 80.879052 0 126.176724-76.92909 45.292556-217.655182-23.570835-213.438137-16.175401 60.525492 105.731066-25.965371 139.111315-70.061682 139.111315-105.133456 0-379.945405-234.181577-379.945405-382.496507 0-148.315954 183.496198-268.555455 409.844366-268.555455 226.353284 0 408.096559 120.240525 408.096559 268.555455C870.176612 402.782785 715.679889 402.782785 715.679889 410.869974L715.679889 410.869974zM473.15018 91.20037400000001c-144.601352-20.323884-272.714172 40.59251-286.131763 136.055722-13.417591 95.470375 92.935646 189.337229 237.544161 209.661114 144.625912 20.323884 272.721335-40.590464 286.144042-136.060839C724.128305 205.39213600000005 617.775069 111.52630499999998 473.15018 91.20037400000001L473.15018 91.20037400000001z"  horiz-adv-x="1024" />

    
    <glyph glyph-name="option" unicode="&#58910;" d="M962.28365227 311.2464768l-159.88681814 0L802.3968352 471.42364053c0 15.99304747-13.03282773 29.0040448-29.1000992 29.0040448-16.16223467 0-29.099008-13.12997333-29.099008-29.34132693l0-159.84097387L584.3305568 311.24538559999996c-16.233184 0-29.31622187-13.03282773-29.31622187-29.12411307 0-16.18515627 12.98589227-29.10228267 29.0040448-29.10228266l160.17716374 0 0-159.86062187c0-16.25938027 13.03282773-29.31731307 29.099008-29.31731307 16.2124448 0 29.1000992 12.98698347 29.1000992 28.9822144L802.39465173 253.02008106999995l160.22519147 0c15.97012587 0 28.95710933 13.0361024 28.95710933 29.10228266C991.57804373 298.30751999999995 978.470992 311.2464768 962.28365227 311.2464768zM50.0632096 660.50661227l338.23244267 0 338.24444906 0c9.57378027 0 17.6554432 9.76588907 17.6554432 21.8152512 0 12.14541653-8.032544 21.8370816-17.94251413 21.8370816L50.3753856 704.15894507c-9.9569056 0-17.95233813-9.7626144-17.95233813-21.8370816C32.42195627 670.201552 40.3224256 660.50661227 50.0632096 660.50661227zM50.3644704 369.44885867000005l243.0294912 0 243.05350507 0c9.8586688 0 17.94251413 9.7637056 17.94251413 21.839264 0 12.12031147-8.0314528 21.81306773-17.9654368 21.81306773L50.38739307 413.10119147c-9.98201067 0-17.9654368-9.7637056-17.9654368-21.81306774C32.42195627 379.14270612999997 40.45450027 369.44885867000005 50.3644704 369.44885867000005zM589.9344544 122.0434368L50.2673248 122.0434368c-9.71567787 0-17.84536853-9.76588907-17.84536853-21.8152512 0-12.14541653 7.96050347-21.8370816 17.7722368-21.8370816L320.08942827 78.39110506999998l269.89414506 0c9.81282453 0 17.79734187 9.7637056 17.79734187 21.8370816C607.78091413 112.34958932999996 599.7963968 122.0434368 589.9344544 122.0434368z"  horiz-adv-x="1024" />

    
    <glyph glyph-name="pause" unicode="&#59242;" d="M773.888 852.15253333h-66.6592c-36.82773333 0-66.66453333-29.8496-66.66453333-66.6784v-799.94453333c0-36.82773333 29.83893333-66.6592 66.66453333-66.6592h66.6592c36.81706667 0 66.6688 29.83253333 66.6688 66.6592v799.94986667c-0.00106667 36.8256-29.8496 66.67626667-66.6688 66.67626666zM307.2576 852.15253333h-66.6688c-36.82773333 0-66.66453333-29.8496-66.66453333-66.6784v-799.94453333c0-36.82773333 29.83893333-66.6592 66.66453333-66.6592h66.6688c36.80533333 0 66.6592 29.83253333 66.6592 66.6592v799.94986667c-0.00106667 36.8256-29.8496 66.67626667-66.6592 66.67626666z"  horiz-adv-x="1024" />

    
    <glyph glyph-name="download" unicode="&#58936;" d="M898.66251651 34.447264140000016l-0.05965232 0L107.55340153 34.447264140000016l-0.05965234 0c-16.97605708 0-30.73834523-13.75731712-30.73834521-30.7681714 0-16.98351362 13.78714329-30.73834523 30.73834521-30.73834521l0.05965234 0 791.04946266 0 0.05965232 0c16.98599914 0 30.74580176 13.75483161 30.74580177 30.73834521C929.40583277 20.689947019999977 915.64851565 34.447264140000016 898.66251651 34.447264140000016L898.66251651 34.447264140000016 898.66251651 34.447264140000016M480.0225098 100.18661020000002c5.73905063-5.77384782 13.63801247-9.38529891 22.41933161-9.3852989l0 0 0 0c8.77634811 0 16.67530994 3.58162493 22.35719376 9.41512507l382.09550199 382.09798751c5.74402165 5.70922447 9.36292929 13.61067182 9.3828134 22.32488209 0 17.40605091-14.21465159 31.50388338-31.52128197 31.50388337-8.75397849 0.02485514-16.62062865-3.55676979-22.30251247-9.26847976L533.94075376 198.38676234000002 533.94075376 793.05829035c-0.02982617 0.03231167-0.02982617 0.03231167-0.02982617 0.06213784 0.02982617 17.40853643-14.0680063 31.53122403-31.434289 31.53122403-17.41350745 0-31.50636889-14.12020209-31.50636888-31.53122403 0 0 0-0.02982617 0.02982615-0.06213784l0-594.63921633L142.51711967 526.90702124c-5.68436933 5.70922447-13.60818631 9.25853772-22.30002697 9.2336826-17.40605091 0.02485514-31.49891235-14.09534695-31.56105017-31.44174555 0-8.74900746 3.58162493-16.71010714 9.32564657-22.35967929L480.0225098 100.18661020000002 480.0225098 100.18661020000002 480.0225098 100.18661020000002M480.0225098 100.18661020000002L480.0225098 100.18661020000002z"  horiz-adv-x="1024" />

    
    <glyph glyph-name="error" unicode="&#58998;" d="M508.94447188 802.71518344c-231.58754625 0-419.31951375-187.7319675-419.31951376-419.31951375 0-231.58923281 187.7319675-419.31951375 419.31951376-419.31951375s419.31951375 187.73009437 419.31951374 419.31951375C928.26398563 614.98321594 740.53201812 802.71518344 508.94447188 802.71518344zM509.6102075 89.87199094000005c-32.33982375 0-58.55761031 24.52768312-58.55761031 54.78954 0 30.26035875 26.21778656 54.7897275 58.55761031 54.7897275 32.35012875 0 58.56697875-24.52936875 58.56697875-54.7897275C568.17718719 114.39948656000001 541.96033719 89.87199094000005 509.6102075 89.87199094000005zM614.61382812 546.55704656l-46.52826656-259.04368125c0-0.28743 0.09162563-0.5536875 0.09162563-0.83943093 0-30.26204437-26.21778656-54.78954-58.56697875-54.78954-32.33982375 0-58.55761031 24.52768312-58.55761031 54.78954 0 0.28593094 0.08206969 0.55275 0.09162562 0.83943093l-46.53932156 259.04368125 0.65561812 0c-0.4099725 3.5625225-0.65561813 7.1454675-0.65561812 10.79024625 0 54.46276219 47.01000188 98.6059575 105.00455719 98.6059575s105.00361969-44.14319625 105.00361968-98.6059575c0-3.64552875-0.24564562-7.22772469-0.65543062-10.79024625L614.61382812 546.55704656z"  horiz-adv-x="1024" />

    
    <glyph glyph-name="random" unicode="&#58914;" d="M769.6690464 570.16422933c-48.92768 0-170.94398293-121.43997653-260.0420256-207.51885653C374.54296213 232.12389546999998 246.9424096 105.29614400000003 144.81590507 105.29614400000003l-62.818448 0c-25.67270613 0-46.4870272 20.82851093-46.4870272 46.4870272s20.81432107 46.4870272 46.4870272 46.4870272l62.818448 0c64.53760213 0 195.2031616 129.79342933 300.19492373 231.23663787 127.78283733 123.46039147 238.13836053 233.63144747 324.6593088 233.63144746l59.95646507 0-63.61744534 61.6832608c-18.169552 18.1258912-18.19793173 45.7622528-0.06112533 63.92307307 18.13571413 18.16627733 47.5698208 18.2022976 65.74046507 0.06985813l143.1548064-142.79896853c8.7387616-8.7169312 13.6473568-20.5207008 13.6473568-32.85713387 0-12.33534187-4.9085952-24.11182293-13.6473568-32.82875413L831.68740587 437.62561067c-9.07276907-9.05202987-20.95621973-13.3570112-32.83966934-13.3570112-11.91073813 0-23.82256853 4.98827627-32.90079466 14.07960213-18.1368064 18.16082027-18.10733547 48.46159893 0.06112533 66.58748907l63.61744533 65.22853866L769.6690464 570.16422933zM831.68740587 331.02821332999997c-18.1706432 18.13244053-47.60474987 18.1040608-65.74046507-0.06221653-18.1368064-18.159728-18.10733547-49.34136853 0.06112533-67.46725973l63.61744534-65.22744747-59.95646507 0c-38.1794176 0-101.96277547 56.4766784-165.20146133 115.59812587-18.7480608 17.53100907-48.17234347 17.43168-65.70117014-1.30874027-17.54083307-18.73932907-16.55845867-49.48654187 2.1906944-67.0120928 96.3435968-90.0891488 161.32981653-140.25025387 228.71193707-140.25025387l59.95646507 0-63.61744534-61.67998613c-18.169552-18.1258912-18.19793173-46.65184747-0.06112533-64.81266667 9.0793184-9.0913248 20.99005653-13.19437333 32.90079467-13.19437333 11.88345067 0 23.76690027 4.75032427 32.83966933 13.80235413L974.84221227 122.33487466999998c8.7387616 8.71802347 13.6473568 20.60365653 13.6473568 32.9400896 0 12.33534187-4.9085952 24.19477867-13.6473568 32.91280213L831.68740587 331.02821332999997zM81.99636587 570.16422933l62.818448 0c48.99426347 0 122.02830933-62.35236587 180.1761152-115.13859306 8.90904-8.08166293 20.08845547-12.949872 31.24494933-12.949872 12.64315307 0 25.25137707 4.68701547 34.42238293 14.78145386 17.2614016 18.9947456 15.8500576 49.94498347-3.1556032 67.19874454-90.93071573 82.5401504-166.99920533 139.0812288-242.68784426 139.0812288l-62.818448 0c-25.67270613 0-46.4870272-20.82851093-46.4870272-46.4870272S56.324752 570.16422933 81.99636587 570.16422933z"  horiz-adv-x="1024" />

    
    <glyph glyph-name="playbtn" unicode="&#58886;" d="M546.904228 899.22760333c-277.76918 0-502.94529-225.17611-502.94529-502.94529 0-277.77164 225.17488-502.94775 502.94529-502.94775 277.76795 0 502.94529 225.17611 502.94529 502.94775C1049.849518 674.05026333 824.672178 899.22760333 546.904228 899.22760333L546.904228 899.22760333zM546.904228-56.36832566999999c-249.992631 0-452.651868 202.659237-452.651868 452.651868 0 249.990172 202.659237 452.649408 452.651868 452.649408s452.650638-202.659237 452.650638-452.649408C999.554866 146.29091132999997 796.896859-56.36832566999999 546.904228-56.36832566999999L546.904228-56.36832566999999zM775.203924 431.92685533c-78.267962 53.25591-220.1919 132.967608-301.004232 182.358388-33.132146 20.893592-60.993549 12.502952-63.667043-24.399633-1.938099-98.840588 0-289.550264 0-390.101445 1.681079-37.462125 34.709926-42.403293 63.37559-27.362121 80.72133 48.906255 219.456505 132.95777 300.588574 182.112436C773.968017 354.85667733 836.097862 389.02796933 775.203924 431.92685533L775.203924 431.92685533z"  horiz-adv-x="1085" />

    
    <glyph glyph-name="menu" unicode="&#58953;" d="M863.475712 738.035712C768.909312 832.602112 643.176448 884.682752 509.44 884.682752S249.970688 832.602112 155.404288 738.035712C60.837888 643.469312 8.757248 517.736448 8.757248 384s52.08064-259.469312 146.64704-354.035712c94.5664-94.5664 220.297216-146.644992 354.035712-146.644992 133.736448 0 259.469312 52.08064 354.035712 146.644992S1010.122752 250.263552 1010.122752 384s-52.08064 259.469312-146.64704 354.035712zM509.44-75.72275200000001C255.9488-75.72275200000001 49.717248 130.50879999999995 49.717248 384c0 253.4912 206.231552 459.722752 459.722752 459.722752 253.4912 0 459.722752-206.231552 459.722752-459.722752 0-253.4912-206.231552-459.722752-459.722752-459.722752zM189.46048 436.310016h104.620032v-104.620032H189.46048zM724.287488 436.310016h105.13408v-104.620032h-105.13408zM466.343936 436.310016h104.62208v-104.620032h-104.62208z"  horiz-adv-x="1024" />

    
    <glyph glyph-name="loop" unicode="&#58898;" d="M886.80166531 650.1150075L673.709165 863.19396l-57.46588594-57.47265937 115.68362438-115.67685001H115.71974844v-307.42623281h81.28131V608.76314156h534.925845L616.24327906 493.08629063l57.46588594-57.47265938 213.09250031 213.07218-0.71121187 0.71798438zM766.46468656 159.23685844H246.81295438l115.67684999 115.6700775-57.47265937 57.48620625-213.09249937-213.07895344 0.71121093-0.71121094-0.71121093-0.71121187 213.09249937-213.08572594 57.47265937 57.47943281-115.67684999 115.67007656h600.93304124V382.24567875h-81.28130906zM449.82657125 522.22564031h81.28131v-276.44450718h-81.28131z"  horiz-adv-x="1024" />

    
    <glyph glyph-name="add" unicode="&#58887;" d="M788.72050134 359.14486518H235.27949866c-14.08457599 0-24.85513482 10.77055883-24.85513482 24.85513482s10.77055883 24.85513482 24.85513482 24.85513482h553.44100268c14.08457599 0 24.85513482-10.77055883 24.85513482-24.85513482s-10.77055883-24.85513482-24.85513482-24.85513482zM512 82.42436383999996c-14.08457599 0-24.85513482 10.77055883-24.85513482 24.85513482V660.72050134c0 14.08457599 10.77055883 24.85513482 24.85513482 24.85513482s24.85513482-10.77055883 24.85513482-24.85513482v-553.44100268c0-14.08457599-10.77055883-24.85513482-24.85513482-24.85513482zM893.11206756-68.36345362999998H130.88793244c-39.7682157 0-72.07989097 32.31167525-72.07989097 72.07989096V765.11206756c0 39.7682157 32.31167525 72.07989097 72.07989097 72.07989097h762.22413512c39.7682157 0 72.07989097-32.31167525 72.07989097-72.07989097v-762.22413512c-1.65700859-40.59672061-33.14018016-71.25138606-72.07989097-71.25138607zM130.88793244 787.4816889c-11.59906251 0-22.36962133-10.77055883-22.36962134-22.36962134v-761.39563023c0-11.59906251 10.77055883-22.36962133 22.36962134-22.36962133h762.22413512c12.42756741 0 22.36962133 9.94205392 22.36962134 22.36962133V765.11206756c0 11.59906251-10.77055883 22.36962133-22.36962134 22.36962134H130.88793244z"  horiz-adv-x="1024" />

    
    <glyph glyph-name="playlist" unicode="&#58944;" d="M973.46920391 623.3811975599999c-9.89819385-9.89819385-25.64531982-9.89819385-35.54351368 0l-122.8275835 121.02791309V159.06593554999995h-0.89983564c4.04926084-67.48768388-41.3924458-143.52380684-120.57799483-188.96551348-101.68144278-58.48932568-219.55993066-44.54187099-263.65188339 31.94417022-44.09195362 76.03612383 2.69950693 185.36617089 104.38095058 244.30541396 81.88505596 47.24137881 174.11822315 47.24137881 229.90804102 5.84893213V794.34999638c0 13.94745469-1.79967129 26.09523721 5.39901475 32.3940876 10.34811123 9.44827559 25.64531982 9.89819385 35.54351367 0l167.81937275-167.81937275c9.89819385-9.89819385 9.89819385-25.64531982 0.44991827-35.54351367zM602.73686211 673.77200156H103.32800469c-12.59770078 0-22.49589463 9.89819385-22.49589463 22.49589463s9.89819385 22.49589463 22.49589463 22.49589463h499.40885742c12.59770078 0 22.49589463-9.89819385 22.49589462-22.49589463s-9.89819385-22.49589463-22.49589462-22.49589463zM470.01108477 361.97890371999995H103.32800469c-12.59770078 0-22.49589463 9.89819385-22.49589463 22.49589462s9.89819385 22.49589463 22.49589463 22.49589463h366.68308008c12.59770078 0 22.49589463-9.89819385 22.49589462-22.49589463 0-12.14778339-9.89819385-22.49589463-22.49589462-22.49589463zM323.78777099 50.63572411999996H103.32800469c-12.59770078 0-22.49589463 9.89819385-22.49589463 22.49589463s9.89819385 22.49589463 22.49589463 22.49589463h220.4597663c12.59770078 0 22.49589463-9.89819385 22.49589375-22.49589463s-9.89819385-22.49589463-22.49589375-22.49589463z"  horiz-adv-x="1024" />

    
    <glyph glyph-name="wechart" unicode="&#58969;" d="M683.264 571.712c10.24 0 20.224-0.448 30.4-1.408C690.688 716.2239999999999 547.584 828.672 374.4 828.672c-189.184 0-342.528-134.208-342.528-299.712 0-92.544 48-175.296 123.264-230.336-9.6-48.128-21.568-111.424-19.84-109.312 2.624 0.96 68.8 37.696 110.4 61.76 39.744-14.016 83.136-21.888 128.704-21.888 4.8 0 9.472 0.128 14.272 0.256-5.312 20.672-8.064 41.856-8.064 64-0.064 153.664 135.424 278.272 302.656 278.272z m-174.336 97.856c23.68 0 42.816-19.136 42.816-42.752 0-23.68-19.2-42.88-42.816-42.88-23.616 0-42.816 19.264-42.816 42.88 0 23.616 19.2 42.752 42.816 42.752z m-262.976-85.632c-23.68 0-42.752 19.264-42.752 42.88 0 23.616 19.136 42.752 42.752 42.752s42.816-19.136 42.816-42.752c0-23.68-19.2-42.88-42.816-42.88z m746.176-281.28c0 138.496-131.392 250.752-293.504 250.752-162.176 0-293.632-112.32-293.632-250.752 0-138.496 131.456-250.88 293.632-250.88 44.096 0 85.888 8.384 123.52 23.296C860.864 54.39999999999998 903.04 32.639999999999986 905.152 32c1.472-1.6-6.848 38.912-15.872 79.808 62.848 46.208 102.848 114.432 102.848 190.848z m-403.648 55.04c-23.68 0-42.88 19.136-42.88 42.752 0 23.616 19.2 42.88 42.88 42.88 23.616 0 42.752-19.264 42.752-42.88 0-23.616-19.136-42.752-42.752-42.752z m214.016 0c-23.616 0-42.88 19.136-42.88 42.752 0 23.616 19.264 42.88 42.88 42.88s42.88-19.264 42.88-42.88c0-23.616-19.264-42.752-42.88-42.752z"  horiz-adv-x="1024" />

    
    <glyph glyph-name="mini-pause" unicode="&#58909;" d="M315.23018311 824.14301275h-18.1235366c-25.89076502 0-44.01430164-18.12353539-44.01430043-41.4252255v-794.84649836c0-23.30168889 18.12353539-41.42522429 41.42522429-41.42522428h18.1235354c23.30168889 0 41.42522429 18.12353539 41.4252255 41.42522428V782.71778725c2.58907614 23.30168889-15.53445925 41.42522429-38.83614816 41.4252255z m414.25224652 0h-18.1235354c-25.89076502 0-44.01430164-18.12353539-44.01430164-41.4252255v-794.84649836c0-23.30168889 18.12353539-41.42522429 41.4252243-41.42522428h18.1235366c23.30168889 0 41.42522429 18.12353539 41.42522429 41.42522428V782.71778725c2.58907614 23.30168889-15.53445925 41.42522429-38.83614815 41.4252255z"  horiz-adv-x="1024" />

    
    <glyph glyph-name="mute" unicode="&#58889;" d="M623.25333333-116.15999999999997c-24.21333333 0-48.21333333 6.61333333-69.54666667 19.09333333l-2.56 1.6-117.54666666 79.89333334c-19.30666667 13.12-39.68 24.85333333-60.58666667 34.88-20.90666667 10.02666667-42.66666667 18.56-64.85333333 25.38666666-22.08 6.82666667-44.90666667 11.94666667-67.84 15.46666667s-46.4 5.22666667-69.76 5.22666667c-18.66666667 0-36.69333333 3.62666667-53.76 10.88-16.42666667 6.93333333-31.14666667 16.85333333-43.73333334 29.44s-22.61333333 27.41333333-29.54666666 43.84c-7.14666667 16.96-10.88 34.98666667-10.88 53.65333333V564.69333333c0 18.66666667 3.62666667 36.69333333 10.88 53.76 6.93333333 16.42666667 16.85333333 31.14666667 29.44 43.73333334 12.69333333 12.69333333 27.41333333 22.61333333 43.84 29.54666666 16.96 7.14666667 34.98666667 10.88 53.65333333 10.88 23.25333333 0 46.72 1.70666667 69.76 5.22666667 22.93333333 3.41333333 45.76 8.64 67.84 15.46666667 22.08 6.82666667 43.94666667 15.36 64.74666667 25.38666666 20.90666667 10.02666667 41.28 21.76 60.58666666 34.88L553.70666666 865.06666667c21.76 12.8 46.08 19.41333333 71.04 19.09333333 23.25333333-0.21333333 46.4-6.61333333 66.77333334-18.24 20.48-11.73333333 37.65333333-28.48 49.70666666-48.42666667 12.8-21.12 19.62666667-45.76 19.62666667-71.04v-181.33333333c0-25.17333333-20.37333333-45.54666667-45.54666667-45.54666667S669.86666666 540.1600000000001 669.86666666 565.22666667v181.33333333c0 8.74666667-2.13333333 16.85333333-6.50666666 23.89333333-4.05333333 6.72-9.92 12.48-16.96 16.42666667-6.93333333 3.94666667-14.82666667 6.18666667-22.61333334 6.29333333-8 0-15.57333333-1.92-22.82666666-5.97333333l-116.16-78.93333333c-23.04-15.68-47.36-29.76-72.42666667-41.70666667-24.96-11.94666667-50.98666667-22.08-77.33333333-30.29333333-26.34666667-8.10666667-53.65333333-14.29333333-81.06666667-18.45333334-27.52-4.16-55.57333333-6.29333333-83.30666667-6.29333333-6.4 0-12.48-1.17333333-18.13333333-3.62666667-5.65333333-2.34666667-10.66666667-5.76-14.93333333-10.02666666s-7.68-9.28-10.02666667-14.93333334c-2.45333333-5.76-3.73333333-11.84-3.73333333-18.24v-361.38666666c0-6.4 1.17333333-12.48 3.62666666-18.13333334 2.34666667-5.65333333 5.76-10.66666667 10.02666667-14.93333333s9.28-7.68 14.93333333-10.02666667c5.76-2.45333333 11.84-3.73333333 18.24-3.73333333 27.84 0 55.78666667-2.13333333 83.30666667-6.29333333 27.41333333-4.16 54.72-10.34666667 81.06666667-18.45333334 26.45333333-8.10666667 52.48-18.34666667 77.44-30.29333333 24.96-11.94666667 49.38666667-26.02666667 72.42666666-41.70666667l116.16-78.93333333c7.25333333-4.05333333 14.93333333-5.76 22.82666667-5.97333333 7.78666667 0.10666667 15.68 2.24 22.72 6.29333333 6.93333333 3.94666667 12.8 9.70666667 16.85333333 16.42666667 4.26666667 7.14666667 6.50666667 15.14666667 6.50666667 23.89333333V179.94666667c0 25.17333333 20.37333333 45.54666667 45.54666667 45.54666666s45.54666667-20.37333333 45.54666666-45.54666666v-158.50666667c0-25.28-6.82666667-49.81333333-19.62666666-71.04-11.94666667-19.84-29.12-36.58666667-49.6-48.32-20.58666667-11.73333333-43.62666667-18.02666667-66.88-18.24h-1.70666667zM487.78666666 88.21333332999995c-11.62666667 0-23.25333333 4.48-32.21333333 13.33333334-17.81333333 17.81333333-17.81333333 46.61333333 0 64.32l443.73333333 443.73333333c17.81333333 17.81333333 46.61333333 17.81333333 64.32 0s17.81333333-46.61333333 0-64.32l-443.73333333-443.73333333c-8.74666667-8.96-20.48-13.33333333-32.10666667-13.33333334z"  horiz-adv-x="1024" />

    
    <glyph glyph-name="volume" unicode="&#58890;" d="M575.06666667-85c-22.5 0-44.9 6-65.3 18l-2.4 1.5-110.3 75c-73 49.6-158.3 75.9-246.6 75.9-71.3 0-129.2 58-129.2 129.2V553.4c0 71.3 58 129.3 129.2 129.3 88.3 0 173.5 26.2 246.6 75.9L509.76666667 835c40.3 23.7 88.7 24 129.3 0.8 40.6-23.3 64.9-65.1 64.9-111.9v-679.8c0-46.8-24.3-88.6-64.9-111.9-20.1-11.5-42-17.2-64-17.2z m-21 91c19.2-10.8 36.2-3.4 42.7 0.3 6.6 3.8 21.9 15 21.9 37.8V723.9c0 22.8-15.4 34-21.9 37.8-6.5 3.7-23.5 11-42.7 0.3l-109-74c-87.2-59.3-189.1-90.6-294.5-90.6-24.2 0-43.9-19.7-43.9-43.9v-338.8c0-24.2 19.7-43.9 43.9-43.9 105.5 0 207.3-31.4 294.5-90.6l109-74.2zM879.76666667 78.89999999999998c-8.2 0-16.5 2.4-23.8 7.3-19.5 13.2-24.7 39.7-11.5 59.2 15.5 22.9 28.7 47.3 39.4 72.5 10.9 25.7 19.2 52.6 24.8 80 5.8 28.1 8.7 57.1 8.7 86 0 29-2.9 57.9-8.7 86-5.6 27.4-14 54.3-24.8 80-10.7 25.2-23.9 49.6-39.4 72.5-13.2 19.5-8 46 11.5 59.2 19.5 13.2 46 8 59.2-11.5 18.5-27.4 34.4-56.7 47.2-87 13.1-30.9 23.1-63.3 29.8-96.2 6.9-33.7 10.4-68.4 10.4-103.1s-3.5-69.4-10.4-103.1c-6.7-32.9-16.8-65.2-29.8-96.2-12.8-30.2-28.7-59.5-47.2-87-8.2-12-21.6-18.6-35.4-18.6z"  horiz-adv-x="1024" />

    
    <glyph glyph-name="full" unicode="&#58965;" d="M917.73155555 857.31555555H748.65777778c-8.64711111 0-17.29422222-3.29955555-23.89333333-9.89866666-6.59911111-6.59911111-9.89866667-15.24622222-9.89866667-23.89333334s3.29955555-17.29422222 9.89866667-23.89333333c6.59911111-6.59911111 15.24622222-9.89866667 23.89333333-9.89866667h121.17333333L589.48266667 509.38311111c-13.19822222-13.19822222-13.19822222-34.58844445 0-47.78666666 13.19822222-13.19822222 34.58844445-13.19822222 47.78666666 0l280.34844445 280.34844444V620.6577777800001c0-8.64711111 3.29955555-17.29422222 9.89866667-23.89333333 6.59911111-6.59911111 15.24622222-9.89866667 23.89333333-9.89866667s17.29422222 3.29955555 23.89333333 9.89866667c6.59911111 6.59911111 9.89866667 15.24622222 9.89866667 23.89333333V789.7315555499999c0.11377778 37.31911111-30.15111111 67.584-67.47022223 67.584zM951.52355555 181.13422221999997c-8.64711111 0-17.29422222-3.29955555-23.89333333-9.89866667-6.59911111-6.59911111-9.89866667-15.24622222-9.89866667-23.89333333v-121.17333333L637.38311111 306.51733333000004c-13.19822222 13.19822222-34.58844445 13.19822222-47.78666666 0s-13.19822222-34.58844445 0-47.78666666l280.34844444-280.34844445H748.65777778c-8.64711111 0-17.29422222-3.29955555-23.89333333-9.89866667-6.59911111-6.59911111-9.89866667-15.24622222-9.89866667-23.89333333s3.29955555-17.29422222 9.89866667-23.89333333c6.59911111-6.59911111 15.24622222-9.89866667 23.89333333-9.89866667h169.07377777c37.31911111 0 67.584 30.26488889 67.584 67.584V147.34222222000005c0 8.64711111-3.29955555 17.29422222-9.89866666 23.89333333-6.59911111 6.59911111-15.24622222 9.89866667-23.89333334 9.89866667zM386.61688889 306.51733333000004L106.26844445 26.16888888999995V147.34222222000005c0 8.64711111-3.29955555 17.29422222-9.89866667 23.89333333-6.59911111 6.59911111-15.24622222 9.89866667-23.89333333 9.89866667s-17.29422222-3.29955555-23.89333334-9.89866667c-6.59911111-6.59911111-9.89866667-15.24622222-9.89866666-23.89333333v-169.07377777c0-37.31911111 30.26488889-67.584 67.584-67.584H275.34222222c8.64711111 0 17.29422222 3.29955555 23.89333333 9.89866666 6.59911111 6.59911111 9.89866667 15.24622222 9.89866667 23.89333334s-3.29955555 17.29422222-9.89866667 23.89333333c-6.59911111 6.59911111-15.24622222 9.89866667-23.89333333 9.89866667H154.16888889l280.34844444 280.34844444c13.19822222 13.19822222 13.19822222 34.58844445 0 47.78666666-13.19822222 13.312-34.70222222 13.312-47.90044444 0.11377778zM154.16888889 789.7315555499999H275.34222222c8.64711111 0 17.29422222 3.29955555 23.89333333 9.89866667 6.59911111 6.59911111 9.89866667 15.24622222 9.89866667 23.89333333s-3.29955555 17.29422222-9.89866667 23.89333334c-6.59911111 6.59911111-15.24622222 9.89866667-23.89333333 9.89866666H106.26844445C68.94933333 857.31555555 38.68444445 827.05066667 38.68444445 789.7315555499999V620.6577777800001c0-8.64711111 3.29955555-17.29422222 9.89866666-23.89333333 6.59911111-6.59911111 15.24622222-9.89866667 23.89333334-9.89866667s17.29422222 3.29955555 23.89333333 9.89866667c6.59911111 6.59911111 9.89866667 15.24622222 9.89866667 23.89333333V741.8311111099999l280.34844444-280.34844444c13.19822222-13.19822222 34.58844445-13.19822222 47.78666666 0 13.19822222 13.19822222 13.19822222 34.58844445 0 47.78666666L154.16888889 789.7315555499999z"  horiz-adv-x="1024" />

    
    <glyph glyph-name="style" unicode="&#58949;" d="M899.8912 322.55999999999995H651.6736a81.92 81.92 0 0 1-81.92-81.92v-245.76a81.92 81.92 0 0 1 81.92-81.92h248.2176a81.92 81.92 0 0 1 81.92 81.92V240.64a81.92 81.92 0 0 1-81.92 81.92z m40.96-327.68a40.96 40.96 0 0 0-40.96-40.96H651.8784a40.96 40.96 0 0 0-40.96 40.96V240.64a40.96 40.96 0 0 0 40.96 40.96h248.2176a40.96 40.96 0 0 0 40.96-40.96zM368.64 322.55999999999995H122.88a81.92 81.92 0 0 1-81.92-81.92v-245.76a81.92 81.92 0 0 1 81.92-81.92h245.76a81.92 81.92 0 0 1 81.92 81.92V240.64a81.92 81.92 0 0 1-81.92 81.92z m40.96-327.68a40.96 40.96 0 0 0-40.96-40.96H122.88a40.96 40.96 0 0 0-40.96 40.96V240.64a40.96 40.96 0 0 0 40.96 40.96h245.76a40.96 40.96 0 0 0 40.96-40.96zM959.6928 686.8992000000001l-144.7936 144.7936a81.92 81.92 0 0 1-115.9168 0l-144.7936-144.7936a81.92 81.92 0 0 1 0-115.9168l144.7936-144.7936a81.92 81.92 0 0 1 115.9168 0l144.7936 144.7936a81.92 81.92 0 0 1 0 115.9168z m-28.4672-86.2208l-144.7936-144.7936a40.96 40.96 0 0 0-57.9584 0l-144.7936 144.7936a40.96 40.96 0 0 0 0 57.9584l144.7936 144.7936a40.96 40.96 0 0 0 57.9584 0l144.7936-144.7936a40.96 40.96 0 0 0 0.2048-57.9584zM409.6 691.2v-204.8a40.96 40.96 0 0 0-40.96-40.96H122.88a40.96 40.96 0 0 0-40.96 40.96V732.16a40.96 40.96 0 0 0 40.96 40.96h245.76a40.96 40.96 0 0 0 40.96-40.96h40.96a81.92 81.92 0 0 1-81.92 81.92H122.88a81.92 81.92 0 0 1-81.92-81.92v-245.76a81.92 81.92 0 0 1 81.92-81.92h245.76a81.92 81.92 0 0 1 81.92 81.92V691.2z"  horiz-adv-x="1024" />

    
    <glyph glyph-name="favorite" unicode="&#59015;" d="M559.240533-20.701866999999993a68.2496 68.2496 0 0 0-94.446933 0.034134L144.0768 286.8224C143.633067 287.1808 17.066667 398.9504 17.066667 538.965333 17.066667 704.699733 122.026667 807.645867 291.054933 807.645867c89.309867 0 172.100267-61.064533 220.945067-106.0352 48.810667 44.970667 131.601067 106.0352 220.945067 106.0352C901.9392 807.645867 1006.933333 704.699733 1006.933333 538.965333c0-121.7024-96.938667-223.880533-126.634666-252.3136L559.240533-20.701866999999993z"  horiz-adv-x="1024" />

    
    <glyph glyph-name="mini-play" unicode="&#58901;" d="M203.7963283-53.45037275000004c-6.62803595 0-9.94205392 0-13.25607191 3.31401799-9.94205392 6.62803595-13.2560719 16.57008987-13.25607189 26.51214379L180.59820247 791.62421097c0 9.94205392 6.62803595 19.88410785 13.2560719 26.51214379 9.94205392 6.62803595 19.88410785 6.62803595 29.82616178 0l702.57181076-410.93822893c9.94205392-6.62803595 13.2560719-16.57008987 13.25607191-26.5121438 0-9.94205392-6.62803595-19.88410785-13.25607191-26.51214381L217.05240019-50.13635476000002c-3.31401797 0-9.94205392-3.31401797-13.25607189-3.31401799z m33.14017975 792.05029611l-6.62803595-712.51386469 619.72136138 351.28590538L236.93650805 738.59992336z"  horiz-adv-x="1024" />

    
    <glyph glyph-name="music" unicode="&#58881;" d="M512-76.79999999999995C258.048-76.79999999999995 51.2 130.048 51.2 384S258.048 844.8 512 844.8s460.8-206.848 460.8-460.8c0-17.408-13.312-30.72-30.72-30.72s-30.72 13.312-30.72 30.72c0 220.16-179.2 399.36-399.36 399.36S112.64 604.1600000000001 112.64 384s179.2-399.36 399.36-399.36c17.408 0 30.72-13.312 30.72-30.72s-13.312-30.72-30.72-30.72zM512-76.79999999999995C258.048-76.79999999999995 51.2 130.048 51.2 384S258.048 844.8 512 844.8s460.8-206.848 460.8-460.8c0-83.968-22.528-164.864-65.536-236.544-9.216-14.336-27.648-19.456-41.984-10.24-14.336 9.216-19.456 27.648-10.24 41.984 36.864 61.44 56.32 133.12 56.32 204.8 0 220.16-179.2 399.36-399.36 399.36S112.64 604.1600000000001 112.64 384s179.2-399.36 399.36-399.36c91.136 0 177.152 29.696 247.808 87.04 6.144 5.12 13.312 11.264 19.456 16.384 5.12 4.096 9.216 9.216 14.336 13.312 12.288 12.288 31.744 12.288 43.008 0 12.288-12.288 12.288-31.744 0-43.008-5.12-5.12-10.24-10.24-16.384-15.36-7.168-6.144-14.336-13.312-22.528-19.456C716.8-41.98400000000004 617.472-76.79999999999995 512-76.79999999999995zM752.64 543.744c-9.216 0-18.432 4.096-24.576 11.264-41.984 53.248-102.4 89.088-169.984 101.376-16.384 3.072-27.648 18.432-24.576 35.84 3.072 16.384 18.432 27.648 35.84 24.576 81.92-14.336 155.648-57.344 206.848-122.88 10.24-13.312 8.192-32.768-5.12-43.008-5.12-5.12-11.264-7.168-18.432-7.168zM381.952 100.35199999999998c-23.552 0-47.104 6.144-68.608 18.432-31.744 18.432-55.296 48.128-64.512 83.968-9.216 35.84-5.12 72.704 13.312 104.448 18.432 31.744 48.128 55.296 83.968 64.512l73.728 19.456c35.84 9.216 72.704 5.12 104.448-13.312 31.744-18.432 55.296-48.128 64.512-83.968 9.216-35.84 5.12-72.704-13.312-104.448-18.432-31.744-48.128-55.296-83.968-64.512l-73.728-19.456c-11.264-3.072-23.552-5.12-35.84-5.12z m73.728 234.496c-7.168 0-13.312-1.024-19.456-3.072L362.496 312.32000000000005c-19.456-5.12-35.84-18.432-46.08-35.84s-13.312-38.912-7.168-58.368c5.12-19.456 18.432-35.84 35.84-46.08s38.912-13.312 58.368-7.168l73.728 19.456C495.616 189.44000000000005 512 202.75199999999995 522.24 220.15999999999997c10.24 17.408 13.312 38.912 7.168 58.368-5.12 19.456-18.432 35.84-35.84 46.08-11.264 7.168-24.576 10.24-37.888 10.24zM563.2 230.39999999999998c-17.408 0-30.72 13.312-30.72 30.72V680.96c0 17.408 13.312 30.72 30.72 30.72s30.72-13.312 30.72-30.72v-419.84c0-17.408-13.312-30.72-30.72-30.72z"  horiz-adv-x="1024" />

    
    <glyph glyph-name="not-favorite" unicode="&#59306;" d="M873.984 399.965091l-49.454545-49.454546L523.636364 49.61745499999995 222.766545 350.510545l-49.454545 49.454546A193.885091 193.885091 0 0 0 116.363636 538.0654549999999a193.861818 193.861818 0 0 0 56.948364 138.100363A193.861818 193.861818 0 0 0 311.389091 733.090909c52.340364 0 101.399273-20.224 138.123636-56.925091l49.454546-49.454545a34.909091 34.909091 0 0 1 49.361454 0l49.454546 49.454545A193.954909 193.954909 0 0 0 735.883636 733.090909c52.340364 0 101.399273-20.224 138.100364-56.925091A193.908364 193.908364 0 0 0 930.909091 538.0654549999999a193.954909 193.954909 0 0 0-56.925091-138.100364m49.361455 325.562182A263.191273 263.191273 0 0 1 735.883636 802.909091c-70.981818 0-137.565091-27.485091-187.461818-77.381818L523.636364 700.765091l-24.762182 24.762182A263.307636 263.307636 0 0 1 311.389091 802.909091a263.214545 263.214545 0 0 1-187.461818-77.381818A263.214545 263.214545 0 0 1 46.545455 538.0654549999999a263.214545 263.214545 0 0 1 77.381818-187.461819l49.454545-49.477818L498.967273-24.436364000000026c6.818909-6.818909 15.732364-10.216727 24.669091-10.216727s17.873455 3.397818 24.692363 10.216727L873.890909 301.125818l49.454546 49.477818A263.121455 263.121455 0 0 1 1000.727273 538.0654549999999c0 71.005091-27.461818 137.565091-77.381818 187.461818"  horiz-adv-x="1024" />

    
    <glyph glyph-name="motion" unicode="&#59344;" d="M512-8.727272810000045c-216.54545437 0-392.72727281 176.18181844-392.72727281 392.72727281S295.45454563 776.72727281 512 776.72727281s392.72727281-176.18181844 392.72727281-392.72727281-176.18181844-392.72727281-392.72727281-392.72727281m0 850.90909125C258.95272719 842.18181844 53.81818156 637.04727281 53.81818156 384s205.13454562-458.18181844 458.18181844-458.18181844 458.18181844 205.13454562 458.18181844 458.18181844S765.04727281 842.18181844 512 842.18181844M293.81818156 536.7272728099999a54.54545437 54.54545437 0 1 1 0-109.09090875 54.54545437 54.54545437 0 0 1 0 109.09090875m447.27272719 0a54.54545437 54.54545437 0 1 1 0-109.09090875 54.54545437 54.54545437 0 0 1 0 109.09090875M621.09090875 220.36363594H402.90909125a32.72727281 32.72727281 0 1 1 0-65.45454469h218.1818175a32.72727281 32.72727281 0 1 1 0 65.45454469"  horiz-adv-x="1024" />

    
    <glyph glyph-name="language" unicode="&#58888;" d="M506.30403161 206.77771060999999c-85.82788741 0-166.60707555 33.39908741-227.3209205 94.11293236-60.71384494 60.71384494-94.11293235 141.49303309-94.11293235 227.3209205S218.26926617 694.81863902 278.98311111 755.53248395c60.71384494 60.71384494 141.49303309 94.11293235 227.3209205 94.11293235s166.60707555-33.39908741 227.32092049-94.11293235 94.11293235-141.49303309 94.11293235-227.32092048-33.39908741-166.60707555-94.11293235-227.3209205c-60.71384494-60.71384494-141.49303309-94.11293235-227.32092049-94.11293236z m0 611.79878717c-160.13438419 0-290.36493431-130.23055013-290.36493433-290.36493431 0-160.13438419 130.23055013-290.36493431 290.36493433-290.36493433 160.13438419 0 290.36493431 130.23055013 290.36493431 290.36493433 0 160.13438419-130.23055013 290.36493431-290.36493431 290.36493431zM276.78239605 512.67710419c-8.54395259 0-15.53445925 6.99050667-15.53445925 15.53445928 0 135.02034173 109.90629925 244.92664098 244.92664098 244.92664098 8.54395259 0 15.53445925-6.99050667 15.53445925-15.53445927s-6.99050667-15.53445925-15.53445925-15.53445926c-117.93243653 0-213.85772247-95.92528592-213.85772247-213.85772245 0-8.54395259-6.86105283-15.53445925-15.53445926-15.53445928zM506.30403161 137.00209777999999c-104.46923852 0-202.72469333 40.64850173-276.64282864 114.56663704l22.00715061 22.00715061c140.45740247-140.45740247 368.94340741-140.45740247 509.27135605 0 140.45740247 140.45740247 140.45740247 368.94340741 0 509.27135605l22.00715062 22.00715062c73.91813531-73.91813531 114.56663703-172.17359013 114.56663703-276.64282863s-40.64850173-202.72469333-114.56663703-276.64282865c-73.91813531-73.91813531-172.17359013-114.56663703-276.64282864-114.56663704zM529.86462815 165.35248592000005h37.6710637v-188.48477234h-37.6710637zM741.39218173 733.78424098l-28.09148049 28.0914805 48.28627752 48.28627754c6.08432987 6.08432987 15.92282075 6.08432987 22.00715063 0l6.08432986-6.08432988c6.08432987-6.08432987 6.08432987-15.92282075 0-22.00715062l-48.28627752-48.28627754zM229.53174914 245.61385875999997l-6.08432989 6.08432988c-6.08432987 6.08432987-6.08432987 15.92282075 0 22.00715061l47.50955458 47.50955458c0.77672297 0.77672297 2.07126124 0.77672297 2.8479842 0l26.66748839-26.6674884-48.93354667-48.93354667c-6.08432987-6.08432987-15.92282075-6.08432987-22.00715061 0zM743.07508148-98.34496000000001H359.24448395c-8.54395259 0-15.53445925 6.99050667-15.53445926 15.53445925v13.59265186c0 43.62593975 35.47034864 79.09628839 79.0962884 79.09628839h256.83639308c43.62593975 0 79.09628839-35.47034864 79.0962884-79.09628839v-13.59265186c-0.12945383-8.67340642-6.99050667-15.53445925-15.66391309-15.53445925z m-368.29613828 31.06891852h352.76167902c-1.03563061 25.50240395-22.13660445 45.95610864-48.02736987 45.95610865H422.80631309c-25.89076543 0-46.99173925-20.45370469-48.02736989-45.95610865z"  horiz-adv-x="1024" />

    
    <glyph glyph-name="video-num" unicode="&#59010;" d="M980.33967408 653.18305185c-22.57351111 14.19946667-191.87484445-65.41463703-191.87484445-65.41463703v8.37404443c0 69.54097778-58.25422222 125.85339259-130.22245926 125.8533926H156.77060741C84.80237037 721.8744888900001 26.54814815 665.56207408 26.54814815 596.0210963v-423.07128889c0-69.54097778 58.25422222-125.85339259 130.22245926-125.85339259h501.59312592c71.96823703 0 130.22245925 56.31241482 130.22245926 125.85339259v10.31585184s170.27223703-79.00728889 191.87484444-65.41463703c21.48124445 13.59265185 22.57351111 521.13256297-0.12136295 535.33202963z m-677.44805926-470.8882963V587.76841482l330.22862221-202.67614815-330.22862221-202.79751112z m0 0"  horiz-adv-x="1024" />

    
    <glyph glyph-name="play" unicode="&#58896;" d="M156.28497234 809.36469928v-850.1217347c0-53.47441934 60.03718899-84.95140708 104.03205217-54.56821428l616.04961733 425.12163374c38.16129017 26.37261137 38.16129017 82.7638172 0 109.13642854L260.3170245 863.93291357c-43.99486318 30.38319282-104.03205216-1.09379495-104.03205216-54.56821429z"  horiz-adv-x="1024" />

    
    <glyph glyph-name="sequence" unicode="&#58895;" d="M92.49918031 384.55557187a59.89992937 59.89992937 0 0 1 59.89993032 59.89992938V504.35543156a59.89992937 59.89992937 0 0 0 59.89992937 59.89992938h574.44032531l-77.86990875-77.27090906a59.89992937 59.89992937 0 0 1 0-85.05790032 59.89992937 59.89992937 0 0 1 85.05790031 0l179.69978907 179.69978907a59.89992937 59.89992937 0 0 1 0 85.05790031l-179.69978907 179.69978906a59.89992937 59.89992937 0 0 1-85.05790031-85.05790031L786.73936531 684.05522063H212.29904a179.69978906 179.69978906 0 0 1-179.69978906-179.69978907v-59.89993031a59.89992937 59.89992937 0 0 1 59.89992937-59.89992937zM931.09819625 384.55557187a59.89992937 59.89992937 0 0 1-59.89992937-59.89992937v-59.89993031a59.89992937 59.89992937 0 0 0-59.89993032-59.89992938H236.85801125l77.86990875 76.67191032a59.89992937 59.89992937 0 0 1 0 84.45890062 59.89992937 59.89992937 0 0 1-85.05790031 0l-179.69978907-179.69978906a59.89992937 59.89992937 0 0 1 1e-8-85.05790031l179.69978906-179.69978907a59.89992937 59.89992937 0 0 1 85.05790031 85.6569L236.85801125 85.05592313H811.29833656a179.69978906 179.69978906 0 0 1 179.69978906 179.69978906V324.6556425a59.89992937 59.89992937 0 0 1-59.89992937 59.89992937z"  horiz-adv-x="1024" />

    
    <glyph glyph-name="theme" unicode="&#59058;" d="M512 192.85333333000005c118.29333333 0 215.04 96.74666667 215.04 215.04v238.93333334C727.04 765.12 630.29333333 861.86666667 512 861.86666667s-215.04-96.74666667-215.04-215.04v-238.93333334c0-118.29333333 96.74666667-215.04 215.04-215.04z m-167.25333333 238.93333334h95.57333333c13.12 0 23.89333333 10.77333333 23.89333333 23.89333333 0 13.12-10.77333333 23.89333333-23.89333333 23.89333333h-95.57333333v47.78666667h95.57333333c13.12 0 23.89333333 10.77333333 23.89333333 23.89333333 0 13.12-10.77333333 23.89333333-23.89333333 23.89333334h-95.57333333V622.93333333h95.57333333c13.12 0 23.89333333 10.77333333 23.89333333 23.89333334s-10.77333333 23.89333333-23.89333333 23.89333333H346.66666667c11.62666667 80.96 81.28 143.36 165.33333333 143.36 92.26666667 0 167.25333333-74.98666667 167.25333333-167.25333333v-238.93333334c0-92.26666667-74.98666667-167.25333333-167.25333333-167.25333333s-167.25333333 74.98666667-167.25333333 167.25333333v23.89333334zM893.44 406.08c0.96 13.86666667-9.81333333 25.70666667-23.68 25.70666667h-0.42666667c-12.8 0-22.82666667-10.13333333-23.68-22.82666667-11.73333333-173.86666667-157.01333333-311.68-333.76-311.68S189.97333333 235.09333332999995 178.13333333 408.96c-0.85333333 12.69333333-10.88 22.82666667-23.68 22.82666667h-0.42666666c-13.86666667 0-24.53333333-11.94666667-23.68-25.70666667 12.8-190.4 166.82666667-343.46666667 357.54666666-355.41333333v-96.74666667H392.53333333c-13.12 0-23.89333333-10.77333333-23.89333333-23.89333333 0-13.12 10.77333333-23.89333333 23.89333333-23.89333334h238.93333334c13.12 0 23.89333333 10.77333333 23.89333333 23.89333334 0 13.12-10.77333333 23.89333333-23.89333333 23.89333333h-95.57333334v96.74666667c190.72 11.94666667 344.74666667 164.90666667 357.54666667 355.41333333z"  horiz-adv-x="1024" />

    
    <glyph glyph-name="listen" unicode="&#58899;" d="M857.44 304.71000000000004c4.43 21 12.58 63.41 12.58 90.31a352 352 0 1 1-704 0 354.11 354.11 0 0 1 7-70.25 47.08 47.08 0 0 1 63.48-34.5c25.78 10.22 39.07 11.74 44.7 11.74h45.57l-1.71-197.54a44 44 0 0 0-43.8-43.47 120.92 120.92 0 0 0-120.5 120.51 118.44 118.44 0 0 0 13.58 55.37A46.46 46.46 0 0 1 179 266a45.78 45.78 0 0 1-48.41 38l-3.27-0.23a20 20 0 0 1 2.75-39.9l3.27 0.22a5.9 5.9 0 0 0 6.24-4.89 6.1 6.1 0 0 0-0.67-3.88 160.19 160.19 0 0 1-18.12-73.89c0-88.51 72-160.51 160.5-160.51a83.84 83.84 0 0 1 83.85 83.13L367 321.84000000000003A20 20 0 0 1 347 342h-65.74c-15.06 0-35.06-4.89-59.44-14.55a6.87 6.87 0 0 0-5.93 0.35 7.08 7.08 0 0 0-3.61 4.9 315 315 0 0 0-6.22 62.3 312 312 0 1 0 624 0c0-31.58-14.17-93.31-14.31-93.93a20 20 0 0 1 8-20.87 120.87 120.87 0 0 0 51.63-98.71A120.92 120.92 0 0 0 754.83 61h-1.33a43.86 43.86 0 0 0-43.86 44.23L711.35 302h43.48a120.37 120.37 0 0 0 22.92-2.2 20 20 0 0 1 7.64 39.26 160.26 160.26 0 0 1-30.56 2.94h-63.31a20 20 0 0 1-20-19.82l-1.88-216.61A83.87 83.87 0 0 1 753.5 21h1.33c88.5 0 160.5 72 160.5 160.51a160.72 160.72 0 0 1-57.89 123.2zM466 309a20 20 0 0 1-20-20v-185a20 20 0 0 1 40 0V289a20 20 0 0 1-20 20zM558 309a20 20 0 0 1-20-20v-185a20 20 0 0 1 40 0V289a20 20 0 0 1-20 20z"  horiz-adv-x="1024" />

    
    <glyph glyph-name="prev" unicode="&#58940;" d="M343.95259221 436.78968149L712.1969664 717.83731883c43.70934215 33.36821646 106.7137627 2.19481771 106.71376157-52.78865294v-562.09527581c0-54.98347065-63.00442055-86.15892423-106.71376157-52.79070891L343.95259221 331.21031851c-34.81704221 26.57620082-34.81704221 79.00316103 0 105.57936298zM201.32437789 78.16715719000001V452.62607133v187.23562268c0 22.33247517-6.71803278 68.8079451 19.40810752 86.29044906 29.04023267 19.42043762 67.97975097-1.37689885 67.97975096-36.31724544v-561.69453681c0-22.33247517 6.73036288-68.80589027-19.39577628-86.29044907-29.05256391-19.42043762-67.99208221 1.37895367-67.9920822 36.31724544z"  horiz-adv-x="1024" />

    
    <glyph glyph-name="next" unicode="&#58942;" d="M675.50569699 436.78968149L307.26132281 717.83731883c-43.70728733 33.36821646-106.7137627 2.19481771-106.71376156-52.78865294v-562.09527581c0-54.98347065 63.00647538-86.15892423 106.71376156-52.79070891l368.24437418 281.04763734c34.81909703 26.57620082 34.81909703 79.00316103 0 105.57936298zM818.13596615 78.16715719000001V452.62607133v187.23562268c0 22.33247517 6.71803278 68.8079451-19.40810752 86.29044906-29.04023267 19.42043762-67.97975097-1.37689885-67.97975097-36.31724544v-561.69453681c0-22.33247517-6.73036288-68.80589027 19.39577629-86.29044907 29.05050795-19.42043762 67.99208221 1.37895367 67.9920822 36.31724544z"  horiz-adv-x="1024" />

    
    <glyph glyph-name="scene" unicode="&#59345;" d="M48.2796875 434.23875H992v-468.75H48.2796875zM396.4746875 452.98875l-93.75 93.7509375H196.10375l93.75-93.7509375zM609.7146875 452.98875l-93.75 93.7509375H409.34375l93.75-93.7509375zM822.955625 452.98875l-93.75 93.7509375H622.5846875l93.75-93.7509375zM835.825625 546.7396875l93.75-93.7509375H992V546.7396875zM183.23375 452.98875l-93.75 93.7509375H48.2796875v-93.7509375zM813.3715625 776.8415625l-105-18.5146875-76.0471875-108.6046875 105.001875 18.5146875zM603.3715625 739.813125l-105-18.5146875-76.0453125-108.605625 104.998125 18.5146875zM393.3715625 702.78375l-105.001875-18.51375-76.04625-108.605625 105.0009375 18.5146875zM107.3225 557.1496875l76.04625 108.605625L32 639.0646875l16.2796875-92.325zM958.95125 802.51125l-40.5796875-7.155-76.0453125-108.6046875 132.9028125 23.4346875z"  horiz-adv-x="1024" />

    
    <glyph glyph-name="email" unicode="&#59346;" d="M1165.7311817 58.01311396999995l-295.58005035 343.7832892 295.92476785 306.5979749c2.10886001-6.32658005 3.57246101-12.95442581 3.572461-19.92626489v-609.49530601c0-7.36000837-1.59250795-14.33184742-3.91645431-20.9596932zM773.48973651 404.5932498L675.49364764 327.85739565999995l-97.69409894 76.56349539-49.62266386 38.81982564L230.48652609 751.21611321C236.64074738 752.98097993 243.01005502 754.22877038 249.72408016 754.22877038h851.62386596c6.71330094 0 13.04060519-1.24779045 19.19482649-3.01265717L823.0254968 443.45652724l-49.53648448-38.86255324zM185.34012039 58.01311396999995a62.01656163 62.01656163 0 0 0-3.91645432 20.9596932V688.4681131899999c0 6.97183908 1.46287681 13.59968483 3.57246101 19.92626488l296.09712661-306.72760606L185.34012039 58.013838169999985zM675.49364764 249.35739897999997L820.57191928 362.97657752l299.19596313-346.96758092a68.6016798 68.6016798 0 0 0-18.41993629-2.79757082H249.72408016c-6.41275942 0-12.52352893 1.16233528-18.4199363 2.75411904l299.3683219 346.83867394L675.49292345 249.35739897999997z"  horiz-adv-x="1365" />

    


  </font>
</defs>
</svg>
